<mxfile host="app.diagrams.net" modified="2024-04-23T04:37:09.958Z" agent="Mozilla/5.0 (Windows NT 10.0; Win64; x64) AppleWebKit/537.36 (KHTML, like Gecko) Chrome/123.0.0.0 Safari/537.36" etag="4TUqunUwKCnonj61Ta3S" version="24.2.8" type="github">
  <diagram name="Page-1" id="95cCnDMmfdy28j067dJy">
    <mxGraphModel dx="3144" dy="749" grid="1" gridSize="10" guides="1" tooltips="1" connect="1" arrows="1" fold="1" page="1" pageScale="1" pageWidth="850" pageHeight="1100" math="0" shadow="0">
      <root>
        <mxCell id="0" />
        <mxCell id="1" parent="0" />
        <mxCell id="4dZT9mw-KlEHHDTTk7k8-1" value="`roles`" style="shape=table;startSize=30;container=1;collapsible=1;childLayout=tableLayout;fixedRows=1;rowLines=0;fontStyle=1;align=center;resizeLast=1;fontSize=16;" vertex="1" parent="1">
          <mxGeometry x="70" y="110" width="680" height="210" as="geometry" />
        </mxCell>
        <mxCell id="4dZT9mw-KlEHHDTTk7k8-2" value="" style="shape=tableRow;horizontal=0;startSize=0;swimlaneHead=0;swimlaneBody=0;fillColor=none;collapsible=0;dropTarget=0;points=[[0,0.5],[1,0.5]];portConstraint=eastwest;strokeColor=inherit;top=0;left=0;right=0;bottom=1;fontSize=16;" vertex="1" parent="4dZT9mw-KlEHHDTTk7k8-1">
          <mxGeometry y="30" width="680" height="30" as="geometry" />
        </mxCell>
        <mxCell id="4dZT9mw-KlEHHDTTk7k8-3" value="PK" style="shape=partialRectangle;overflow=hidden;connectable=0;fillColor=none;strokeColor=inherit;top=0;left=0;bottom=0;right=0;fontStyle=1;fontSize=16;" vertex="1" parent="4dZT9mw-KlEHHDTTk7k8-2">
          <mxGeometry width="30" height="30" as="geometry">
            <mxRectangle width="30" height="30" as="alternateBounds" />
          </mxGeometry>
        </mxCell>
        <mxCell id="4dZT9mw-KlEHHDTTk7k8-4" value="`id` bigint(20) unsigned NOT NULL AUTO_INCREMENT" style="shape=partialRectangle;overflow=hidden;connectable=0;fillColor=none;align=left;strokeColor=inherit;top=0;left=0;bottom=0;right=0;spacingLeft=6;fontStyle=5;fontSize=16;" vertex="1" parent="4dZT9mw-KlEHHDTTk7k8-2">
          <mxGeometry x="30" width="650" height="30" as="geometry">
            <mxRectangle width="650" height="30" as="alternateBounds" />
          </mxGeometry>
        </mxCell>
        <mxCell id="4dZT9mw-KlEHHDTTk7k8-5" value="" style="shape=tableRow;horizontal=0;startSize=0;swimlaneHead=0;swimlaneBody=0;fillColor=none;collapsible=0;dropTarget=0;points=[[0,0.5],[1,0.5]];portConstraint=eastwest;strokeColor=inherit;top=0;left=0;right=0;bottom=0;fontSize=16;" vertex="1" parent="4dZT9mw-KlEHHDTTk7k8-1">
          <mxGeometry y="60" width="680" height="30" as="geometry" />
        </mxCell>
        <mxCell id="4dZT9mw-KlEHHDTTk7k8-6" value="" style="shape=partialRectangle;overflow=hidden;connectable=0;fillColor=none;strokeColor=inherit;top=0;left=0;bottom=0;right=0;fontSize=16;" vertex="1" parent="4dZT9mw-KlEHHDTTk7k8-5">
          <mxGeometry width="30" height="30" as="geometry">
            <mxRectangle width="30" height="30" as="alternateBounds" />
          </mxGeometry>
        </mxCell>
        <mxCell id="4dZT9mw-KlEHHDTTk7k8-7" value="`name` varchar(191) NOT NULL" style="shape=partialRectangle;overflow=hidden;connectable=0;fillColor=none;align=left;strokeColor=inherit;top=0;left=0;bottom=0;right=0;spacingLeft=6;fontSize=16;" vertex="1" parent="4dZT9mw-KlEHHDTTk7k8-5">
          <mxGeometry x="30" width="650" height="30" as="geometry">
            <mxRectangle width="650" height="30" as="alternateBounds" />
          </mxGeometry>
        </mxCell>
        <mxCell id="4dZT9mw-KlEHHDTTk7k8-8" value="" style="shape=tableRow;horizontal=0;startSize=0;swimlaneHead=0;swimlaneBody=0;fillColor=none;collapsible=0;dropTarget=0;points=[[0,0.5],[1,0.5]];portConstraint=eastwest;strokeColor=inherit;top=0;left=0;right=0;bottom=0;fontSize=16;" vertex="1" parent="4dZT9mw-KlEHHDTTk7k8-1">
          <mxGeometry y="90" width="680" height="30" as="geometry" />
        </mxCell>
        <mxCell id="4dZT9mw-KlEHHDTTk7k8-9" value="" style="shape=partialRectangle;overflow=hidden;connectable=0;fillColor=none;strokeColor=inherit;top=0;left=0;bottom=0;right=0;fontSize=16;" vertex="1" parent="4dZT9mw-KlEHHDTTk7k8-8">
          <mxGeometry width="30" height="30" as="geometry">
            <mxRectangle width="30" height="30" as="alternateBounds" />
          </mxGeometry>
        </mxCell>
        <mxCell id="4dZT9mw-KlEHHDTTk7k8-10" value="`guard_name` varchar(191) NOT NULL" style="shape=partialRectangle;overflow=hidden;connectable=0;fillColor=none;align=left;strokeColor=inherit;top=0;left=0;bottom=0;right=0;spacingLeft=6;fontSize=16;" vertex="1" parent="4dZT9mw-KlEHHDTTk7k8-8">
          <mxGeometry x="30" width="650" height="30" as="geometry">
            <mxRectangle width="650" height="30" as="alternateBounds" />
          </mxGeometry>
        </mxCell>
        <mxCell id="4dZT9mw-KlEHHDTTk7k8-11" value="" style="shape=tableRow;horizontal=0;startSize=0;swimlaneHead=0;swimlaneBody=0;fillColor=none;collapsible=0;dropTarget=0;points=[[0,0.5],[1,0.5]];portConstraint=eastwest;strokeColor=inherit;top=0;left=0;right=0;bottom=0;fontSize=16;" vertex="1" parent="4dZT9mw-KlEHHDTTk7k8-1">
          <mxGeometry y="120" width="680" height="30" as="geometry" />
        </mxCell>
        <mxCell id="4dZT9mw-KlEHHDTTk7k8-12" value="" style="shape=partialRectangle;overflow=hidden;connectable=0;fillColor=none;strokeColor=inherit;top=0;left=0;bottom=0;right=0;fontSize=16;" vertex="1" parent="4dZT9mw-KlEHHDTTk7k8-11">
          <mxGeometry width="30" height="30" as="geometry">
            <mxRectangle width="30" height="30" as="alternateBounds" />
          </mxGeometry>
        </mxCell>
        <mxCell id="4dZT9mw-KlEHHDTTk7k8-13" value="`created_at` timestamp NULL DEFAULT NULL" style="shape=partialRectangle;overflow=hidden;connectable=0;fillColor=none;align=left;strokeColor=inherit;top=0;left=0;bottom=0;right=0;spacingLeft=6;fontSize=16;" vertex="1" parent="4dZT9mw-KlEHHDTTk7k8-11">
          <mxGeometry x="30" width="650" height="30" as="geometry">
            <mxRectangle width="650" height="30" as="alternateBounds" />
          </mxGeometry>
        </mxCell>
        <mxCell id="4dZT9mw-KlEHHDTTk7k8-14" value="" style="shape=tableRow;horizontal=0;startSize=0;swimlaneHead=0;swimlaneBody=0;fillColor=none;collapsible=0;dropTarget=0;points=[[0,0.5],[1,0.5]];portConstraint=eastwest;strokeColor=inherit;top=0;left=0;right=0;bottom=0;fontSize=16;" vertex="1" parent="4dZT9mw-KlEHHDTTk7k8-1">
          <mxGeometry y="150" width="680" height="30" as="geometry" />
        </mxCell>
        <mxCell id="4dZT9mw-KlEHHDTTk7k8-15" value="" style="shape=partialRectangle;overflow=hidden;connectable=0;fillColor=none;strokeColor=inherit;top=0;left=0;bottom=0;right=0;fontSize=16;" vertex="1" parent="4dZT9mw-KlEHHDTTk7k8-14">
          <mxGeometry width="30" height="30" as="geometry">
            <mxRectangle width="30" height="30" as="alternateBounds" />
          </mxGeometry>
        </mxCell>
        <mxCell id="4dZT9mw-KlEHHDTTk7k8-16" value="`updated_at` timestamp NULL DEFAULT NULL" style="shape=partialRectangle;overflow=hidden;connectable=0;fillColor=none;align=left;strokeColor=inherit;top=0;left=0;bottom=0;right=0;spacingLeft=6;fontSize=16;" vertex="1" parent="4dZT9mw-KlEHHDTTk7k8-14">
          <mxGeometry x="30" width="650" height="30" as="geometry">
            <mxRectangle width="650" height="30" as="alternateBounds" />
          </mxGeometry>
        </mxCell>
        <mxCell id="4dZT9mw-KlEHHDTTk7k8-17" value="" style="shape=tableRow;horizontal=0;startSize=0;swimlaneHead=0;swimlaneBody=0;fillColor=none;collapsible=0;dropTarget=0;points=[[0,0.5],[1,0.5]];portConstraint=eastwest;strokeColor=inherit;top=0;left=0;right=0;bottom=0;fontSize=16;" vertex="1" parent="4dZT9mw-KlEHHDTTk7k8-1">
          <mxGeometry y="180" width="680" height="30" as="geometry" />
        </mxCell>
        <mxCell id="4dZT9mw-KlEHHDTTk7k8-18" value="" style="shape=partialRectangle;overflow=hidden;connectable=0;fillColor=none;strokeColor=inherit;top=0;left=0;bottom=0;right=0;fontSize=16;" vertex="1" parent="4dZT9mw-KlEHHDTTk7k8-17">
          <mxGeometry width="30" height="30" as="geometry">
            <mxRectangle width="30" height="30" as="alternateBounds" />
          </mxGeometry>
        </mxCell>
        <mxCell id="4dZT9mw-KlEHHDTTk7k8-19" value="UNIQUE KEY `roles_name_guard_name_unique` (`name`,`guard_name`)" style="shape=partialRectangle;overflow=hidden;connectable=0;fillColor=none;align=left;strokeColor=inherit;top=0;left=0;bottom=0;right=0;spacingLeft=6;fontSize=16;" vertex="1" parent="4dZT9mw-KlEHHDTTk7k8-17">
          <mxGeometry x="30" width="650" height="30" as="geometry">
            <mxRectangle width="650" height="30" as="alternateBounds" />
          </mxGeometry>
        </mxCell>
        <mxCell id="4dZT9mw-KlEHHDTTk7k8-20" value="`model_has_roles`" style="shape=table;startSize=30;container=1;collapsible=1;childLayout=tableLayout;fixedRows=1;rowLines=0;fontStyle=1;align=center;resizeLast=1;fontSize=16;" vertex="1" parent="1">
          <mxGeometry x="-1220" y="110" width="960" height="180" as="geometry" />
        </mxCell>
        <mxCell id="4dZT9mw-KlEHHDTTk7k8-21" value="" style="shape=tableRow;horizontal=0;startSize=0;swimlaneHead=0;swimlaneBody=0;fillColor=none;collapsible=0;dropTarget=0;points=[[0,0.5],[1,0.5]];portConstraint=eastwest;strokeColor=inherit;top=0;left=0;right=0;bottom=0;fontSize=16;" vertex="1" parent="4dZT9mw-KlEHHDTTk7k8-20">
          <mxGeometry y="30" width="960" height="30" as="geometry" />
        </mxCell>
        <mxCell id="4dZT9mw-KlEHHDTTk7k8-22" value="" style="shape=partialRectangle;overflow=hidden;connectable=0;fillColor=none;strokeColor=inherit;top=0;left=0;bottom=0;right=0;fontSize=16;" vertex="1" parent="4dZT9mw-KlEHHDTTk7k8-21">
          <mxGeometry width="30" height="30" as="geometry">
            <mxRectangle width="30" height="30" as="alternateBounds" />
          </mxGeometry>
        </mxCell>
        <mxCell id="4dZT9mw-KlEHHDTTk7k8-23" value="`role_id` bigint(20) unsigned NOT NULL" style="shape=partialRectangle;overflow=hidden;connectable=0;fillColor=none;align=left;strokeColor=inherit;top=0;left=0;bottom=0;right=0;spacingLeft=6;fontSize=16;" vertex="1" parent="4dZT9mw-KlEHHDTTk7k8-21">
          <mxGeometry x="30" width="930" height="30" as="geometry">
            <mxRectangle width="930" height="30" as="alternateBounds" />
          </mxGeometry>
        </mxCell>
        <mxCell id="4dZT9mw-KlEHHDTTk7k8-24" value="" style="shape=tableRow;horizontal=0;startSize=0;swimlaneHead=0;swimlaneBody=0;fillColor=none;collapsible=0;dropTarget=0;points=[[0,0.5],[1,0.5]];portConstraint=eastwest;strokeColor=inherit;top=0;left=0;right=0;bottom=0;fontSize=16;" vertex="1" parent="4dZT9mw-KlEHHDTTk7k8-20">
          <mxGeometry y="60" width="960" height="30" as="geometry" />
        </mxCell>
        <mxCell id="4dZT9mw-KlEHHDTTk7k8-25" value="" style="shape=partialRectangle;overflow=hidden;connectable=0;fillColor=none;strokeColor=inherit;top=0;left=0;bottom=0;right=0;fontSize=16;" vertex="1" parent="4dZT9mw-KlEHHDTTk7k8-24">
          <mxGeometry width="30" height="30" as="geometry">
            <mxRectangle width="30" height="30" as="alternateBounds" />
          </mxGeometry>
        </mxCell>
        <mxCell id="4dZT9mw-KlEHHDTTk7k8-26" value="`model_type` varchar(191) NOT NULL" style="shape=partialRectangle;overflow=hidden;connectable=0;fillColor=none;align=left;strokeColor=inherit;top=0;left=0;bottom=0;right=0;spacingLeft=6;fontSize=16;" vertex="1" parent="4dZT9mw-KlEHHDTTk7k8-24">
          <mxGeometry x="30" width="930" height="30" as="geometry">
            <mxRectangle width="930" height="30" as="alternateBounds" />
          </mxGeometry>
        </mxCell>
        <mxCell id="4dZT9mw-KlEHHDTTk7k8-27" value="" style="shape=tableRow;horizontal=0;startSize=0;swimlaneHead=0;swimlaneBody=0;fillColor=none;collapsible=0;dropTarget=0;points=[[0,0.5],[1,0.5]];portConstraint=eastwest;strokeColor=inherit;top=0;left=0;right=0;bottom=0;fontSize=16;" vertex="1" parent="4dZT9mw-KlEHHDTTk7k8-20">
          <mxGeometry y="90" width="960" height="30" as="geometry" />
        </mxCell>
        <mxCell id="4dZT9mw-KlEHHDTTk7k8-28" value="" style="shape=partialRectangle;overflow=hidden;connectable=0;fillColor=none;strokeColor=inherit;top=0;left=0;bottom=0;right=0;fontSize=16;" vertex="1" parent="4dZT9mw-KlEHHDTTk7k8-27">
          <mxGeometry width="30" height="30" as="geometry">
            <mxRectangle width="30" height="30" as="alternateBounds" />
          </mxGeometry>
        </mxCell>
        <mxCell id="4dZT9mw-KlEHHDTTk7k8-29" value="`model_id` bigint(20) unsigned NOT NULL" style="shape=partialRectangle;overflow=hidden;connectable=0;fillColor=none;align=left;strokeColor=inherit;top=0;left=0;bottom=0;right=0;spacingLeft=6;fontSize=16;" vertex="1" parent="4dZT9mw-KlEHHDTTk7k8-27">
          <mxGeometry x="30" width="930" height="30" as="geometry">
            <mxRectangle width="930" height="30" as="alternateBounds" />
          </mxGeometry>
        </mxCell>
        <mxCell id="4dZT9mw-KlEHHDTTk7k8-30" value="" style="shape=tableRow;horizontal=0;startSize=0;swimlaneHead=0;swimlaneBody=0;fillColor=none;collapsible=0;dropTarget=0;points=[[0,0.5],[1,0.5]];portConstraint=eastwest;strokeColor=inherit;top=0;left=0;right=0;bottom=0;fontSize=16;" vertex="1" parent="4dZT9mw-KlEHHDTTk7k8-20">
          <mxGeometry y="120" width="960" height="30" as="geometry" />
        </mxCell>
        <mxCell id="4dZT9mw-KlEHHDTTk7k8-31" value="" style="shape=partialRectangle;overflow=hidden;connectable=0;fillColor=none;strokeColor=inherit;top=0;left=0;bottom=0;right=0;fontSize=16;" vertex="1" parent="4dZT9mw-KlEHHDTTk7k8-30">
          <mxGeometry width="30" height="30" as="geometry">
            <mxRectangle width="30" height="30" as="alternateBounds" />
          </mxGeometry>
        </mxCell>
        <mxCell id="4dZT9mw-KlEHHDTTk7k8-32" value="KEY `model_has_roles_model_id_model_type_index` (`model_id`,`model_type`)" style="shape=partialRectangle;overflow=hidden;connectable=0;fillColor=none;align=left;strokeColor=inherit;top=0;left=0;bottom=0;right=0;spacingLeft=6;fontSize=16;" vertex="1" parent="4dZT9mw-KlEHHDTTk7k8-30">
          <mxGeometry x="30" width="930" height="30" as="geometry">
            <mxRectangle width="930" height="30" as="alternateBounds" />
          </mxGeometry>
        </mxCell>
        <mxCell id="4dZT9mw-KlEHHDTTk7k8-33" value="" style="shape=tableRow;horizontal=0;startSize=0;swimlaneHead=0;swimlaneBody=0;fillColor=none;collapsible=0;dropTarget=0;points=[[0,0.5],[1,0.5]];portConstraint=eastwest;strokeColor=inherit;top=0;left=0;right=0;bottom=0;fontSize=16;" vertex="1" parent="4dZT9mw-KlEHHDTTk7k8-20">
          <mxGeometry y="150" width="960" height="30" as="geometry" />
        </mxCell>
        <mxCell id="4dZT9mw-KlEHHDTTk7k8-34" value="" style="shape=partialRectangle;overflow=hidden;connectable=0;fillColor=none;strokeColor=inherit;top=0;left=0;bottom=0;right=0;fontSize=16;" vertex="1" parent="4dZT9mw-KlEHHDTTk7k8-33">
          <mxGeometry width="30" height="30" as="geometry">
            <mxRectangle width="30" height="30" as="alternateBounds" />
          </mxGeometry>
        </mxCell>
        <mxCell id="4dZT9mw-KlEHHDTTk7k8-35" value="CONSTRAINT `model_has_roles_role_id_foreign` FOREIGN KEY (`role_id`) REFERENCES `roles` (`id`) ON DELETE CASCADE" style="shape=partialRectangle;overflow=hidden;connectable=0;fillColor=none;align=left;strokeColor=inherit;top=0;left=0;bottom=0;right=0;spacingLeft=6;fontSize=16;" vertex="1" parent="4dZT9mw-KlEHHDTTk7k8-33">
          <mxGeometry x="30" width="930" height="30" as="geometry">
            <mxRectangle width="930" height="30" as="alternateBounds" />
          </mxGeometry>
        </mxCell>
        <mxCell id="4dZT9mw-KlEHHDTTk7k8-36" value="" style="edgeStyle=entityRelationEdgeStyle;fontSize=12;html=1;endArrow=ERoneToMany;rounded=0;exitX=0.995;exitY=-0.078;exitDx=0;exitDy=0;exitPerimeter=0;entryX=0.011;entryY=-0.037;entryDx=0;entryDy=0;entryPerimeter=0;" edge="1" parent="1" source="4dZT9mw-KlEHHDTTk7k8-27" target="4dZT9mw-KlEHHDTTk7k8-8">
          <mxGeometry width="100" height="100" relative="1" as="geometry">
            <mxPoint x="-580" y="190" as="sourcePoint" />
            <mxPoint x="-480" y="90" as="targetPoint" />
            <Array as="points">
              <mxPoint x="-259" y="190" />
            </Array>
          </mxGeometry>
        </mxCell>
        <mxCell id="4dZT9mw-KlEHHDTTk7k8-38" value="1 to Many" style="edgeLabel;html=1;align=center;verticalAlign=middle;resizable=0;points=[];fontSize=21;" vertex="1" connectable="0" parent="4dZT9mw-KlEHHDTTk7k8-36">
          <mxGeometry x="-0.0515" y="-6" relative="1" as="geometry">
            <mxPoint x="1" as="offset" />
          </mxGeometry>
        </mxCell>
      </root>
    </mxGraphModel>
  </diagram>
</mxfile>
